<svg width="1440" height="518" viewBox="0 0 1440 518" fill="none" xmlns="http://www.w3.org/2000/svg">
<path d="M-4.93526e-05 40.6049C-4.93526e-05 40.6049 37.0793 28.2308 71.1111 27.3675C105.651 26.5042 135.111 27.3675 177.27 31.684C234.667 37.4394 345.397 60.7488 404.317 48.0869C463.238 35.425 465.778 34.8495 495.746 26.7919C529.27 17.5833 597.333 -0.833964 681.651 0.0293458C771.556 0.892655 934.603 47.7991 1001.65 45.497C1008.76 45.2092 1035.17 43.1948 1054.98 39.7416C1074.29 36.2883 1102.73 28.8063 1141.33 26.2164C1157.59 25.0653 1183.49 23.0509 1213.46 23.6265C1221.08 23.9142 1245.46 24.7775 1274.41 28.2308C1303.37 31.684 1330.29 37.1516 1354.67 38.8783C1406.98 42.0437 1440 37.4394 1440 37.4394V68.5186L-4.93526e-05 68.5186V40.6049ZM115.302 36.0006C118.857 38.8783 125.46 37.1516 137.143 37.1516C148.825 37.1516 168.127 40.6049 166.603 40.3171C165.079 40.0293 150.857 36.0006 136.127 34.8495C120.889 33.4106 112.254 33.1229 115.302 36.0006ZM208.762 43.7704C208.762 43.7704 220.952 44.3459 237.206 46.3603C253.46 48.6624 289.524 54.4178 313.905 56.4322C355.556 59.5977 394.159 56.4322 390.603 56.1445C386.54 55.8567 341.841 57.8711 301.206 52.979C284.444 50.9646 253.968 46.648 238.222 45.2092C221.46 43.4826 208.762 43.7704 208.762 43.7704ZM499.302 44.0581C490.667 46.0725 566.857 30.5329 593.27 26.5042C603.936 24.7775 624.762 21.8998 644.063 20.7488C663.873 19.5977 689.27 19.5977 688.762 19.3099C688.762 18.7344 659.302 17.0078 631.873 19.3099C604.444 21.6121 605.46 22.4754 593.27 23.9142C573.968 26.2164 507.936 42.0437 499.302 44.0581ZM428.698 48.6624C427.682 48.6624 432.762 49.8135 453.079 45.497C473.397 41.1804 487.111 35.425 488.127 34.8495C489.143 34.5617 470.349 40.0293 454.603 43.4826C439.365 46.9358 429.206 48.6624 428.698 48.6624ZM2.53963 51.2524C3.04757 50.9646 12.1904 48.0869 26.9205 44.0581C41.6507 40.0293 61.9682 36.0006 60.9523 36.2883C59.9365 36.2883 43.1746 38.015 23.3651 43.4826C3.55554 48.9502 2.0317 51.5401 2.53963 51.2524ZM1281.02 35.1373C1280.51 35.7128 1290.67 35.7128 1303.87 38.5905C1317.08 41.4682 1331.3 43.1948 1343.49 44.3459C1363.81 46.6481 1402.92 44.0581 1400.89 43.7704C1399.37 43.4826 1359.24 44.6337 1337.4 41.756C1326.22 40.3171 1325.21 40.3171 1308.44 37.1516C1291.68 33.9862 1281.52 34.2739 1281.02 35.1373ZM1069.21 42.0437C1067.17 42.3315 1051.43 46.6481 1026.54 49.5257C1001.65 52.6912 981.333 50.9646 981.333 51.8279C981.333 52.6912 986.413 54.4178 1012.83 52.6912C1039.24 50.9646 1071.24 41.756 1069.21 42.0437ZM1076.32 49.238C1075.3 48.9502 1059.05 52.979 1047.37 54.1301C1035.68 54.9934 1037.71 55.5689 1037.71 55.8567C1037.71 56.1445 1043.3 56.4322 1051.43 55.2811C1060.06 53.8423 1077.33 49.5257 1076.32 49.238ZM964.571 55.8567C964.063 55.2811 946.794 53.5545 936.127 50.6768C925.46 47.7991 926.984 48.9502 926.476 49.238C925.968 49.5257 930.54 51.5401 938.667 52.979C946.794 54.7056 965.079 56.4322 964.571 55.8567ZM1107.81 36.5761C1108.32 35.7128 1106.29 35.1373 1098.16 37.1516C1090.03 39.166 1084.95 40.8927 1086.98 40.6049C1089.02 40.3171 1091.56 39.4538 1099.68 38.3027C1108.32 37.1516 1107.3 37.4394 1107.81 36.5761ZM1264.76 32.8351C1265.78 32.8351 1254.1 30.5329 1248 30.2452C1241.9 29.9574 1237.84 29.9574 1237.84 30.8207C1237.84 31.684 1238.35 32.2596 1245.97 31.9718C1254.1 31.684 1263.75 32.8351 1264.76 32.8351ZM666.921 7.79913C667.429 7.51136 679.111 8.66244 705.016 8.66244C730.413 8.66244 774.095 15.5689 792.381 18.7344C810.667 21.8999 741.587 7.51136 708.571 6.93582C675.556 6.36028 666.413 8.0869 666.921 7.79913Z" fill="#D9D9D9"/>
<rect y="68" width="1440" height="450" fill="#D9D9D9"/>
</svg>
