<svg width="272" height="384" viewBox="0 0 272 384" fill="none" xmlns="http://www.w3.org/2000/svg">
<path fill-rule="evenodd" clip-rule="evenodd" d="M124.437 346.828L124.506 346.874L124.437 346.828ZM129.611 367.639C24.1838 292.205 7.76489 204.753 13.5751 83.8114C33.8573 80.2701 58.5776 74.1456 81.5579 65.7368C82.9683 71.3018 85.4518 75.9699 88.1116 79.7105C67.1013 87.529 44.3356 93.2013 25.7245 96.4513C25.1956 107.574 24.889 118.404 24.8276 128.952H24.9196L24.8506 133.628H24.8276C25.1189 221.226 45.5007 288.158 124.445 346.828L124.514 346.874L124.537 346.889L124.56 346.904L125.824 347.809C163.936 320.582 190.028 292.113 206.125 260.127C221.624 229.305 227.435 198.199 230.278 166.113C232.103 145.547 232.7 124.575 233.85 103.028C234.257 111.444 234.525 118.788 234.67 125.732H234.732C234.755 127.618 234.755 129.511 234.755 131.382V131.52V131.65V131.788V131.918V132.056V132.187C234.816 141.638 234.571 150.698 233.927 161.207C229.305 237.384 204.401 297.41 129.787 350.737L129.619 350.614V367.639H129.611Z" fill="url(#paint0_radial_32_383)"/>
<path fill-rule="evenodd" clip-rule="evenodd" d="M223.624 83.9417C235.337 87.8433 263.376 88.5025 257.834 66.0818C266.971 89.7519 233.152 95.1253 217.63 85.8887C219.638 85.2371 221.631 84.5856 223.624 83.9417ZM202.974 63.5522C213.767 72.7045 229.887 83.1062 246.137 69.4851C230.63 88.3875 203.549 75.1344 189.974 61.3063C189.974 61.3063 199.586 63.9355 202.974 63.5522ZM130.86 20.811C123.302 24.9962 119.224 28.5299 118.481 32.1785C146.857 5.3733 181.335 55.6111 208.593 57.0751C198.091 58.7078 180.025 47.9535 162.471 39.8744C139.123 29.1278 116.687 23.1029 114.157 57.2668C109.037 50.5291 109.152 43.1705 111.528 35.3213C100.996 46.1216 100.214 61.8276 105.197 68.4656C101.303 66.488 96.972 62.9927 95.4236 58.8458C93.6453 71.2481 101.395 81.2589 113.169 86.5172C90.3492 82.6693 80.4841 54.2007 91.3993 35.145C91.3993 35.145 89.2301 43.868 93.193 50.3911C93.193 50.3911 93.2007 50.3911 93.2007 50.3987C96.8646 32.7764 113.368 21.2403 130.86 20.811Z" fill="url(#paint1_radial_32_383)"/>
<path fill-rule="evenodd" clip-rule="evenodd" d="M70.0527 233.674L58.8462 242.765C68.88 262.074 112.265 309.253 129.78 321.724V306.394C113.568 292.382 79.6956 255.037 72.061 242.765C71.5475 241.562 70.7503 237.553 70.0527 233.674Z" fill="url(#paint2_radial_32_383)"/>
<path fill-rule="evenodd" clip-rule="evenodd" d="M67.7604 193.002C69.9373 215.691 72.9191 237.599 74.6821 242.228C91.7755 260.947 105.036 276.063 129.665 297.042V231.505L121.225 226.246L122.559 279.42L121.486 278.784C118.941 277.281 116.036 275.043 112.947 272.345C112.433 262.825 112.157 234.755 112.05 220.536L103.933 215.492L105.312 265.14C102.277 262.104 99.2108 258.847 96.2443 255.589C95.4241 247.027 94.0827 222.122 93.4005 208.946L86.5632 204.692L88.9394 247.333C85.4977 243.355 82.4086 239.645 79.9711 236.671C79.2965 228.822 77.1503 209.935 75.7705 197.977L67.7604 193.002ZM76.2688 148.1C76.79 121.241 91.2159 102.89 118.282 96.0988C87.5366 98.4137 73.9386 121.279 71.823 145.677L76.2688 148.1ZM59.8346 180.891L59.9266 151.288L72.9574 157.497L63.4832 155.489L59.8346 180.891ZM67.3618 188.771V188.786L75.1803 192.933V192.926L86.2259 198.79V198.797L93.0633 202.423V202.415L103.718 208.08L111.989 212.472V212.464L120.988 217.247L129.657 221.847V205.351L78.2081 181.696L73.0724 166.097L129.657 189.76V177.434V76.5831L116.419 84.5933V91.9672C82.6539 96.9803 68.2126 116.243 65.6985 146.513L114.557 170.137L118.289 173.617L64.6253 150.192L64.6483 150.07L56.1553 146.498V182.815L67.3618 188.771Z" fill="url(#paint3_radial_32_383)"/>
<path fill-rule="evenodd" clip-rule="evenodd" d="M165.692 265.783C152.247 278.707 144.152 285.621 129.665 297.042V293.056L165.692 265.783Z" fill="url(#paint4_radial_32_383)"/>
<path fill-rule="evenodd" clip-rule="evenodd" d="M194.351 153.764L140.91 169.938L140.902 174.123L194.351 153.764Z" fill="url(#paint5_radial_32_383)"/>
<path fill-rule="evenodd" clip-rule="evenodd" d="M165.875 209.927L163.085 255.597L154.017 265.147L154.163 261.161L160.548 254.355L165.875 209.927ZM147.264 222.222L146.39 272.353L137.851 278.791L136.778 279.428L136.878 276.569L143.853 271.119L147.264 222.222ZM183.528 198.261L179.366 236.679L170.398 247.341L170.72 242.75L176.829 235.437L183.528 198.261Z" fill="url(#paint6_radial_32_383)"/>
<path fill-rule="evenodd" clip-rule="evenodd" d="M185.008 172.735L179.19 182.57L129.665 205.351V208.241L181.106 184.586L185.008 172.735Z" fill="url(#paint7_radial_32_383)"/>
<path fill-rule="evenodd" clip-rule="evenodd" d="M142.911 84.5856L129.665 76.5831V79.2813L140.55 85.858V163.453L142.911 84.5856Z" fill="url(#paint8_radial_32_383)"/>
<path fill-rule="evenodd" clip-rule="evenodd" d="M142.681 92.1359C176.967 98.2757 191.401 123.226 194.352 153.764C190.688 124.598 175.963 101.119 142.589 95.3323L142.681 92.1359Z" fill="url(#paint9_radial_32_383)"/>
<path fill-rule="evenodd" clip-rule="evenodd" d="M193.102 252.745C183.068 272.061 147.302 309.253 129.787 321.732V318.267C141.377 310.012 169.347 285.338 193.102 252.745Z" fill="url(#paint10_radial_32_383)"/>
<defs>
<radialGradient id="paint0_radial_32_383" cx="0" cy="0" r="1" gradientUnits="userSpaceOnUse" gradientTransform="translate(123.656 216.688) scale(132.534 132.534)">
<stop stop-color="#27A8E0"/>
<stop offset="0.4151" stop-color="#2879BD"/>
<stop offset="1" stop-color="#293B8F"/>
</radialGradient>
<radialGradient id="paint1_radial_32_383" cx="0" cy="0" r="1" gradientUnits="userSpaceOnUse" gradientTransform="translate(173.159 55.4842) scale(65.7087 65.7087)">
<stop stop-color="#27A8E0"/>
<stop offset="0.4151" stop-color="#2879BD"/>
<stop offset="1" stop-color="#293B8F"/>
</radialGradient>
<radialGradient id="paint2_radial_32_383" cx="0" cy="0" r="1" gradientUnits="userSpaceOnUse" gradientTransform="translate(94.318 277.7) scale(39.9768 39.9768)">
<stop stop-color="#27A8E0"/>
<stop offset="0.4151" stop-color="#2879BD"/>
<stop offset="1" stop-color="#293B8F"/>
</radialGradient>
<radialGradient id="paint3_radial_32_383" cx="0" cy="0" r="1" gradientUnits="userSpaceOnUse" gradientTransform="translate(92.9099 186.814) scale(82.165 82.165)">
<stop stop-color="#27A8E0"/>
<stop offset="0.4151" stop-color="#2879BD"/>
<stop offset="1" stop-color="#293B8F"/>
</radialGradient>
<radialGradient id="paint4_radial_32_383" cx="0" cy="0" r="1" gradientUnits="userSpaceOnUse" gradientTransform="translate(147.679 281.417) scale(16.8634 16.8634)">
<stop stop-color="#27A8E0"/>
<stop offset="0.4151" stop-color="#2879BD"/>
<stop offset="1" stop-color="#293B8F"/>
</radialGradient>
<radialGradient id="paint5_radial_32_383" cx="0" cy="0" r="1" gradientUnits="userSpaceOnUse" gradientTransform="translate(167.626 163.943) scale(20.2208 20.2208)">
<stop stop-color="#27A8E0"/>
<stop offset="0.4151" stop-color="#2879BD"/>
<stop offset="1" stop-color="#293B8F"/>
</radialGradient>
<radialGradient id="paint6_radial_32_383" cx="0" cy="0" r="1" gradientUnits="userSpaceOnUse" gradientTransform="translate(160.154 238.844) scale(33.1164 33.1164)">
<stop stop-color="#27A8E0"/>
<stop offset="0.4151" stop-color="#2879BD"/>
<stop offset="1" stop-color="#293B8F"/>
</radialGradient>
<radialGradient id="paint7_radial_32_383" cx="0" cy="0" r="1" gradientUnits="userSpaceOnUse" gradientTransform="translate(157.339 190.489) scale(23.2481 23.2481)">
<stop stop-color="#27A8E0"/>
<stop offset="0.4151" stop-color="#2879BD"/>
<stop offset="1" stop-color="#293B8F"/>
</radialGradient>
<radialGradient id="paint8_radial_32_383" cx="0" cy="0" r="1" gradientUnits="userSpaceOnUse" gradientTransform="translate(136.289 120.015) scale(31.0678 31.0678)">
<stop stop-color="#27A8E0"/>
<stop offset="0.4151" stop-color="#2879BD"/>
<stop offset="1" stop-color="#293B8F"/>
</radialGradient>
<radialGradient id="paint9_radial_32_383" cx="0" cy="0" r="1" gradientUnits="userSpaceOnUse" gradientTransform="translate(168.471 122.952) scale(28.454 28.454)">
<stop stop-color="#27A8E0"/>
<stop offset="0.4151" stop-color="#2879BD"/>
<stop offset="1" stop-color="#293B8F"/>
</radialGradient>
<radialGradient id="paint10_radial_32_383" cx="0" cy="0" r="1" gradientUnits="userSpaceOnUse" gradientTransform="translate(161.441 287.239) scale(33.1062 33.1062)">
<stop stop-color="#27A8E0"/>
<stop offset="0.4151" stop-color="#2879BD"/>
<stop offset="1" stop-color="#293B8F"/>
</radialGradient>
</defs>
</svg>
